<?xml version="1.0" encoding="UTF-8" standalone="no"?>
<!-- Created with Inkscape (http://www.inkscape.org/) -->

<svg
   xmlns:dc="http://purl.org/dc/elements/1.1/"
   xmlns:cc="http://creativecommons.org/ns#"
   xmlns:rdf="http://www.w3.org/1999/02/22-rdf-syntax-ns#"
   xmlns:svg="http://www.w3.org/2000/svg"
   xmlns="http://www.w3.org/2000/svg"
   xmlns:sodipodi="http://sodipodi.sourceforge.net/DTD/sodipodi-0.dtd"
   xmlns:inkscape="http://www.inkscape.org/namespaces/inkscape"
   width="357.33932mm"
   height="278.00702mm"
   viewBox="0 0 357.33932 278.00702"
   version="1.1"
   id="svg8"
   inkscape:version="0.92.3 (2405546, 2018-03-11)"
   sodipodi:docname="Pitches be crazy 2.svg">
  <defs
     id="defs2" />
  <sodipodi:namedview
     id="base"
     pagecolor="#ffffff"
     bordercolor="#666666"
     borderopacity="1.0"
     inkscape:pageopacity="0.0"
     inkscape:pageshadow="2"
     inkscape:zoom="0.35"
     inkscape:cx="532.22165"
     inkscape:cy="345.74275"
     inkscape:document-units="mm"
     inkscape:current-layer="layer1"
     showgrid="false"
     showborder="true"
     inkscape:window-width="1624"
     inkscape:window-height="1005"
     inkscape:window-x="537"
     inkscape:window-y="0"
     inkscape:window-maximized="0"
     inkscape:snap-global="false"
     fit-margin-top="0"
     fit-margin-left="0"
     fit-margin-right="0"
     fit-margin-bottom="0" />
  <metadata
     id="metadata5">
    <rdf:RDF>
      <cc:Work
         rdf:about="">
        <dc:format>image/svg+xml</dc:format>
        <dc:type
           rdf:resource="http://purl.org/dc/dcmitype/StillImage" />
        <dc:title></dc:title>
      </cc:Work>
    </rdf:RDF>
  </metadata>
  <g
     inkscape:label="Layer 1"
     inkscape:groupmode="layer"
     id="layer1"
     transform="translate(263.28126,-143.73265)">
    <flowRoot
       xml:space="preserve"
       id="flowRoot845"
       style="font-style:normal;font-variant:normal;font-weight:normal;font-stretch:normal;font-size:96px;line-height:1.25;font-family:'AR BLANCA';-inkscape-font-specification:'AR BLANCA';text-align:center;letter-spacing:0px;word-spacing:0px;text-anchor:middle;fill:#000000;fill-opacity:1;stroke:none"><flowRegion
         id="flowRegion847"><rect
           id="rect849"
           width="1557.1428"
           height="494.28571"
           x="-225.71428"
           y="899.66254" /></flowRegion><flowPara
         id="flowPara851" /></flowRoot>    <g
       id="g1040"
       transform="translate(-116.41667,-300.86905)"
       style="fill:#000000;stroke:#000080"
       inkscape:export-xdpi="96"
       inkscape:export-ydpi="96">
      <g
         style="fill:#000000;stroke:#000080;stroke-width:0.34569445;stroke-miterlimit:4;stroke-dasharray:none;stroke-opacity:1"
         id="g957"
         transform="matrix(1.3807384,0,0,1.5151088,-220.37004,113.30654)">
        <path
           d="m 128.13484,218.83382 c -13.55039,0.40574 -34.389953,38.95075 -38.96905,48.48557 l 0.09345,-0.33812 c 1.308314,-4.4631 4.672548,-13.3217 7.195724,-22.04504 3.364235,-11.49588 5.420146,-22.65365 -0.09346,-22.65365 -1.308313,0 -2.616627,0.81148 -3.551137,1.62296 -0.654156,0.54097 -0.934508,0.94671 -1.02796,1.42008 -0.280352,0.81146 0.09345,1.69056 0,3.8545 -0.186902,7.16801 -2.149372,16.16185 -5.420156,27.38724 -2.429724,8.04711 -5.420154,17.31144 -8.877839,27.79298 -0.373804,1.21721 0.654156,2.23155 2.242822,2.29918 1.775569,0 3.457685,-0.94672 3.92494,-2.16393 l 0.841059,-2.3668 h 0.09345 c 5.046351,-16.63522 28.595997,-55.58597 40.931527,-60.86055 0.65416,-0.33811 1.49522,-0.47335 2.24283,-0.47335 3.92494,0 8.13022,4.05736 5.04634,14.33603 -0.1869,0.81147 -0.46725,1.62295 -0.84106,2.50204 -4.67255,12.78072 -14.8587,26.50815 -31.86678,26.50815 -0.654155,0 -1.308312,0 -1.962469,-0.0676 -0.747607,0 -1.401765,0.33811 -1.682117,0.81146 l -0.09346,0.2705 c -0.186901,0.40573 0.186902,0.81147 0.747609,0.94672 1.962469,0.33811 3.831487,0.54098 5.700507,0.54098 16.82117,0 31.49297,-13.25408 35.51136,-27.18438 0.1869,-0.6086 0.3738,-1.14958 0.46725,-1.75819 1.77557,-7.70901 0.93452,-18.86677 -10.37305,-18.86677 z"
           style="font-style:normal;font-variant:normal;font-weight:normal;font-stretch:normal;font-size:medium;line-height:1.25;font-family:'Clarities Italic';-inkscape-font-specification:'Clarities Italic, ';text-align:center;letter-spacing:0px;word-spacing:0px;text-anchor:middle;fill:#000000;fill-opacity:1;stroke:#000080;stroke-width:0.34569445;stroke-miterlimit:4;stroke-dasharray:none;stroke-opacity:1"
           id="path943"
           inkscape:connector-curvature="0" />
        <path
           d="m 157.40543,263.12677 c 0.0935,-0.27049 -0.0934,-0.54098 -0.46726,-0.6086 -0.46725,0 -0.84105,0.20286 -0.9345,0.47336 -5.60706,10.61678 -11.77483,14.80939 -15.69977,14.80939 -2.42972,0 -3.92494,-1.62294 -3.83148,-4.39548 0.0934,-1.01434 0.28034,-2.02868 0.65415,-3.17827 0.84107,-2.97541 2.42973,-6.42417 3.83149,-10.21105 l 0.0935,-0.13524 c 0.37381,-1.4877 -0.93451,-2.70492 -3.08387,-2.70492 -2.05593,0 -4.11184,1.14959 -4.48565,2.6373 -0.28036,0.67622 -0.56071,1.4877 -0.74761,2.36679 -1.96247,6.76229 -3.92494,17.71718 5.51361,17.71718 1.02795,0 2.33627,-0.13524 3.73803,-0.47335 7.28918,-1.62296 12.98968,-10.9549 15.41941,-16.29711 z m -13.83074,-11.63112 c 0.46725,-1.75819 -1.12142,-2.6373 -2.89699,-2.6373 -1.86901,0 -4.01838,0.87911 -4.48564,2.6373 -0.5607,1.75819 1.02797,2.63729 2.89698,2.63729 1.86902,0 3.92494,-0.8791 4.48565,-2.63729 z"
           style="font-style:normal;font-variant:normal;font-weight:normal;font-stretch:normal;font-size:medium;line-height:1.25;font-family:'Clarities Italic';-inkscape-font-specification:'Clarities Italic, ';text-align:center;letter-spacing:0px;word-spacing:0px;text-anchor:middle;fill:#000000;fill-opacity:1;stroke:#000080;stroke-width:0.34569445;stroke-miterlimit:4;stroke-dasharray:none;stroke-opacity:1"
           id="path945"
           inkscape:connector-curvature="0" />
        <path
           d="m 179.48614,262.51817 c -0.37381,0 -0.74761,0.13525 -0.93451,0.47336 -2.89699,5.07171 -9.3451,15.14751 -15.13906,15.14751 -0.5607,0 -1.12141,-0.13524 -1.68212,-0.33812 -2.89698,-1.4877 -2.52318,-5.88318 -1.12141,-10.75202 1.49522,-5.20696 4.29874,-10.88728 5.7005,-14.06556 1.02797,-0.13523 1.96247,-0.20286 2.89699,-0.20286 1.49522,0 2.80352,0.20286 3.92494,0.81148 0.84105,0.47335 0.93451,0.87909 1.40176,0.87909 0.28036,0 0.65416,-0.20286 1.40176,-0.67623 0.56071,-0.40574 0.84107,-0.67623 0.93451,-0.87909 0.0935,-0.47336 -0.84105,-0.54099 -1.68211,-0.81148 -1.58867,-0.47336 -2.99044,-0.74385 -4.5791,-0.74385 -1.1214,0 -2.33628,0.13525 -3.73804,0.33811 1.12142,-2.43442 2.05593,-4.05736 2.42973,-5.27458 0.3738,-1.28483 -0.0935,-1.96106 -2.52317,-2.29917 -0.46727,-0.0676 -0.93452,-0.0676 -1.30832,-0.0676 -3.27079,0 -3.92494,2.36679 -6.63502,8.72334 h -1.02796 c -5.42016,0 -5.79396,-1.89344 -6.72846,-1.89344 -0.37381,0 -0.74761,0.2705 -1.40178,0.81147 -0.46725,0.40574 -0.7476,0.67623 -0.7476,0.87911 -0.1869,0.47335 0.7476,0.47335 1.68211,0.74385 0.93452,0.20286 2.89699,0.81147 5.88741,0.81147 0.56071,0 1.12142,0 1.77557,-0.0676 -0.84105,1.89344 -1.49521,3.71926 -1.96247,5.47746 -3.83148,12.98358 -0.28035,20.96307 5.88741,20.96307 5.04636,0 11.77482,-5.27458 17.75569,-17.37907 l 0.0935,-0.13524 c 0.0934,-0.20287 -0.18691,-0.40574 -0.5607,-0.47336 z"
           style="font-style:normal;font-variant:normal;font-weight:normal;font-stretch:normal;font-size:medium;line-height:1.25;font-family:'Clarities Italic';-inkscape-font-specification:'Clarities Italic, ';text-align:center;letter-spacing:0px;word-spacing:0px;text-anchor:middle;fill:#000000;fill-opacity:1;stroke:#000080;stroke-width:0.34569445;stroke-miterlimit:4;stroke-dasharray:none;stroke-opacity:1"
           id="path947"
           inkscape:connector-curvature="0" />
        <path
           d="m 203.4271,262.51817 c -0.46725,0 -0.74761,0.20286 -0.84106,0.47336 -2.05592,4.66597 -10.55996,17.71718 -18.31639,17.71718 -0.7476,0 -1.58867,-0.13525 -2.33626,-0.40574 -3.6446,-1.28483 -4.2053,-4.59835 -3.17735,-8.11474 1.58867,-5.47745 7.10229,-11.49588 11.49448,-11.49588 0.65415,0 1.30831,0.13525 1.96247,0.47336 0.65415,0.40574 0.84105,1.14959 0.5607,1.96106 -0.28036,1.08197 -1.21486,2.3668 -2.42973,3.31352 -0.28035,0.20287 -0.46725,0.47336 -0.56069,0.74386 -0.0935,0.40573 0.0935,0.74385 0.46725,1.01434 0.28034,0.13524 0.65415,0.27049 1.02795,0.27049 0.74761,0 1.68213,-0.40574 2.05593,-1.01435 0.56071,-0.94671 0.9345,-1.89344 1.21486,-2.77253 0.37381,-1.42008 0.46725,-2.56967 0.37381,-3.11065 -0.18691,-1.89344 -2.24283,-2.84016 -5.04636,-2.84016 -5.79395,0 -14.95215,3.98974 -17.75569,11.49588 l -0.28034,0.87909 c -1.77557,5.95081 2.24283,11.63113 9.99925,11.63113 1.21486,0 2.52318,-0.13524 3.92494,-0.40574 8.50403,-1.75819 16.26047,-13.72742 18.22294,-19.20488 0.0934,-0.33811 -0.18691,-0.6086 -0.56071,-0.6086 z"
           style="font-style:normal;font-variant:normal;font-weight:normal;font-stretch:normal;font-size:medium;line-height:1.25;font-family:'Clarities Italic';-inkscape-font-specification:'Clarities Italic, ';text-align:center;letter-spacing:0px;word-spacing:0px;text-anchor:middle;fill:#000000;fill-opacity:1;stroke:#000080;stroke-width:0.34569445;stroke-miterlimit:4;stroke-dasharray:none;stroke-opacity:1"
           id="path949"
           inkscape:connector-curvature="0" />
        <path
           d="m 241.91138,262.85628 c -0.3738,0 -0.65416,0.13525 -0.84106,0.40574 -2.42972,3.92213 -9.25165,13.38932 -13.9242,13.38932 h -0.0934 c -0.28036,0 -1.49522,-0.13525 -0.74761,-2.77254 l 0.1869,-0.47336 c 0.3738,-1.35245 1.12141,-2.90778 1.86902,-4.39548 0.46725,-1.14959 0.9345,-2.23155 1.21486,-3.24589 2.33628,-8.04712 -1.21486,-12.7131 -6.26121,-12.7131 -4.5791,0 -10.37306,3.78688 -14.20455,12.37498 0.65416,-4.53073 0.65416,-4.32786 1.21487,-7.50614 14.20454,-8.99383 22.14788,-19.13726 24.20379,-26.30527 1.68212,-5.68032 -0.28035,-9.53482 -5.60706,-9.53482 -1.02796,0 -2.24282,0.13525 -3.64458,0.47336 -10.18615,2.02868 -16.44737,15.07988 -20.18541,27.92823 -2.99042,10.00817 -4.48564,19.94872 -5.1398,24.54708 -0.1869,1.4877 1.21486,2.56967 3.17733,2.56967 2.24282,0 4.29875,-1.21722 4.85946,-2.77254 4.85944,-15.28275 10.2796,-19.47537 13.45693,-19.47537 1.77556,0 2.80353,1.21721 2.80353,2.56966 0,0.74386 -0.1869,1.55533 -0.46726,2.50205 -0.3738,1.35245 -1.02796,2.90778 -1.49521,4.66598 -0.74761,2.43442 -1.30832,5.34219 -0.93451,8.79096 0.28035,2.97541 2.05592,4.80123 4.76599,4.80123 4.11185,0 10.37306,-4.32787 16.35393,-15.21515 l 0.0935,-0.13524 c 0.0934,-0.20287 -0.0935,-0.47336 -0.46725,-0.47336 z m -15.23251,-38.54501 c 0.65416,-0.13525 1.30832,-0.20287 1.86903,-0.20287 3.83148,0 5.04634,2.97541 3.73804,7.43851 -1.96247,6.62704 -9.43856,16.56759 -21.86753,24.8852 0.5607,-3.38114 1.40176,-8.92621 3.08388,-14.47128 2.33628,-8.04712 6.26122,-16.02661 13.17658,-17.64956 z"
           style="font-style:normal;font-variant:normal;font-weight:normal;font-stretch:normal;font-size:medium;line-height:1.25;font-family:'Clarities Italic';-inkscape-font-specification:'Clarities Italic, ';text-align:center;letter-spacing:0px;word-spacing:0px;text-anchor:middle;fill:#000000;fill-opacity:1;stroke:#000080;stroke-width:0.34569445;stroke-miterlimit:4;stroke-dasharray:none;stroke-opacity:1"
           id="path951"
           inkscape:connector-curvature="0" />
        <path
           d="m 267.15335,262.51817 c -0.37381,0 -0.84106,0.27049 -0.84106,0.54098 -3.83149,10.07581 -12.14862,15.14751 -17.56878,15.14751 -3.8315,0 -6.26122,-2.50204 -4.766,-7.50613 l 0.0935,-0.47336 c 1.30832,0.67623 2.71008,0.94672 4.11184,0.94672 5.98087,0 11.86828,-5.3422 13.08314,-9.73769 0.93451,-3.04302 -0.3738,-5.6127 -5.5136,-5.6127 -0.46727,0 -0.93452,0 -1.49522,0.0676 -7.28918,0.54098 -15.13906,6.35655 -17.10153,12.84834 -0.65415,2.16393 -0.5607,4.32786 0.28035,6.49179 1.49522,3.31352 4.95291,5.07171 9.1582,5.07171 7.56953,0 17.38188,-5.6127 21.21336,-17.24382 0,-0.27049 -0.28034,-0.54098 -0.65415,-0.54098 z m -8.31714,-3.51639 c 0.46726,0.8791 0.46726,1.89344 0.1869,2.90778 -1.1214,3.78688 -6.82191,7.91187 -11.21411,7.91187 -1.21486,0 -2.33628,-0.33811 -3.17733,-1.08196 3.36423,-7.9795 8.59749,-10.88728 11.77482,-10.88728 1.21486,0 2.05592,0.47336 2.42972,1.14959 z"
           style="font-style:normal;font-variant:normal;font-weight:normal;font-stretch:normal;font-size:medium;line-height:1.25;font-family:'Clarities Italic';-inkscape-font-specification:'Clarities Italic, ';text-align:center;letter-spacing:0px;word-spacing:0px;text-anchor:middle;fill:#000000;fill-opacity:1;stroke:#000080;stroke-width:0.34569445;stroke-miterlimit:4;stroke-dasharray:none;stroke-opacity:1"
           id="path953"
           inkscape:connector-curvature="0" />
        <path
           d="m 287.29057,263.19439 h -0.0935 c -0.28036,0 -0.46726,0.0676 -0.65416,0.20288 -0.65416,0.40573 -2.80353,1.89343 -10.0927,6.15367 -0.28036,-0.40574 -5.42016,-4.53073 -4.29874,-8.24998 l 0.0935,-0.40574 c 0.46726,-1.14959 1.49522,-2.23155 3.45769,-3.11065 0.84106,-0.40574 1.58867,-0.60861 2.33628,-0.60861 h 0.28034 c 1.58867,0.0676 2.61664,1.35246 2.14938,3.17827 l -0.18691,0.47337 c -0.1869,0.40574 -0.3738,0.81147 -0.65415,1.2172 l -0.0935,0.20288 c -0.0935,0.20286 0.0935,0.40574 0.37381,0.47335 0.0935,0 0.0935,0.0676 0.1869,0.0676 0.28036,0 0.65417,-0.13524 0.84107,-0.33812 0.9345,-1.08196 1.49521,-2.02868 1.77557,-2.84016 l 0.28034,-0.54098 c 0.65416,-2.36679 -1.21486,-3.58401 -3.92494,-3.78687 h -0.46725 c -4.29874,0 -10.37305,2.36679 -12.05518,6.8299 -0.1869,0.27049 -0.28034,0.54099 -0.28034,0.74385 -0.84107,2.90779 0,6.49179 3.83148,10.68441 -6.54156,4.46311 -9.71889,7.709 -10.6534,10.00818 l -0.18691,0.47335 c -0.65415,2.36681 1.12142,3.58402 4.11184,3.78689 h 0.65416 c 5.23325,0 13.27004,-3.04304 15.41941,-8.24999 l 0.1869,-0.67623 c 0.74761,-2.3668 0.1869,-5.13933 -2.33627,-8.31761 5.3267,-3.31352 8.97129,-5.27458 10.37305,-6.55941 0.0935,-0.0676 0.0935,-0.20287 0.0935,-0.27049 l 0.0935,-0.0676 c 0.0935,-0.27049 -0.1869,-0.47337 -0.56071,-0.47337 z m -24.5776,22.51841 c -0.46726,-0.20287 -0.74761,-0.81148 -0.46726,-1.69058 l 0.1869,-0.54098 c 0.74761,-1.89344 3.27079,-4.93646 8.59749,-8.72334 1.86903,2.02868 2.24283,3.8545 1.77557,5.40982 l -0.1869,0.40574 c -1.30831,3.38115 -6.82192,5.20696 -9.06474,5.20696 h -0.28035 c -0.28036,0 -0.46726,0 -0.56071,-0.0676 z"
           style="font-style:normal;font-variant:normal;font-weight:normal;font-stretch:normal;font-size:medium;line-height:1.25;font-family:'Clarities Italic';-inkscape-font-specification:'Clarities Italic, ';text-align:center;letter-spacing:0px;word-spacing:0px;text-anchor:middle;fill:#000000;fill-opacity:1;stroke:#000080;stroke-width:0.34569445;stroke-miterlimit:4;stroke-dasharray:none;stroke-opacity:1"
           id="path955"
           inkscape:connector-curvature="0" />
      </g>
      <g
         transform="translate(-149.67859,248.70833)"
         style="fill:#000000;stroke:#000080;stroke-width:0.5;stroke-miterlimit:4;stroke-dasharray:none;stroke-opacity:1"
         id="g963">
        <path
           d="m 186.33142,348.17446 c -1.96247,0 -4.48565,0.27049 -6.63502,0.74385 -0.7476,-3.17827 -2.99043,-5.68032 -7.66298,-5.68032 h -0.0935 c -7.84988,0.13525 -12.14862,5.40982 -15.32595,11.09014 l 0.84106,-4.4631 c 0.1869,-0.81148 0.3738,-1.7582 0.5607,-2.84016 7.84988,-4.86884 18.87709,-20.21923 21.86752,-30.15978 1.40176,-5.00409 0.84107,-8.5881 -3.27078,-8.79097 -13.64384,0.0676 -20.65266,20.35447 -23.73654,30.36265 l -0.46726,1.55532 c -1.02796,3.65164 -1.96247,6.96515 -2.33627,9.39958 -0.84106,0.33811 -1.58867,0.6086 -2.42972,0.8791 -0.28036,0.13524 -0.56071,0.20286 -0.84106,0.27049 -0.65416,0.20286 -1.21487,0.33811 -1.96247,0.54097 -0.65416,0.20288 -1.40177,0.40574 -2.24283,0.60862 -0.3738,0.0676 -0.74761,0.20286 -1.21486,0.33811 -0.3738,0.0676 -0.84105,0.13524 -1.21486,0.27049 -3.64459,0.74385 -7.94334,1.42008 -12.70933,1.62294 h -3.64459 c -0.65416,0 -1.12141,-0.0676 -1.77557,-0.0676 -0.65415,0 -1.30831,-0.0676 -1.86901,-0.13525 -2.52318,-0.20286 -5.04636,-0.54098 -7.66299,-1.01434 -2.52317,-0.54099 -5.04635,-1.14959 -7.56952,-1.89344 -2.42973,-0.74385 -5.046354,-1.55532 -7.56953,-2.43443 -2.429725,-0.87909 -4.9529,-1.82581 -7.662979,-2.56966 -1.401764,-0.40574 -2.710077,-0.81147 -4.205292,-1.08196 -0.654158,-0.13525 -1.495215,-0.27049 -2.149373,-0.40574 -0.373803,0 -0.747607,-0.0676 -1.214862,-0.0676 l -0.560705,-0.0676 c -0.186903,0 -0.373804,0 -0.560706,-0.0676 h -2.99043 c -0.186903,0.0676 -0.373805,0.0676 -0.654158,0.0676 l -1.121411,0.13525 c -0.373804,0 -0.93451,0.0676 -1.308314,0.13525 l -1.121411,0.20286 -1.214862,0.27049 -1.121412,0.33811 c 0.747608,0.13525 1.495215,0.33812 2.149372,0.54099 0,-0.0676 0.09346,-0.0676 0.186902,-0.0676 l 0.560706,-0.13524 0.560705,-0.0676 c 0.373804,-0.0676 0.654158,-0.13525 1.027962,-0.20287 l 1.214862,-0.0676 0.560705,-0.0676 h 0.560706 l 1.121411,-0.0676 h 1.682118 c 0.186901,0.0676 0.373804,0.0676 0.560705,0.0676 0.373804,0.0676 0.747609,0.0676 0.93451,0.13524 0.747607,0.0676 1.495215,0.20287 2.149372,0.33812 1.495215,0.20287 2.710078,0.60861 4.111841,0.94672 2.616628,0.74385 5.139804,1.62294 7.75643,2.50205 2.523176,0.87909 5.046348,1.69057 7.662978,2.43442 2.52318,0.74385 5.1398,1.35245 7.66298,1.89343 1.77557,0.27049 3.45768,0.54099 5.23325,0.74385 -30.371558,-1.14959 -61.677628,-13.72743 -77.190486,-13.72743 -12.242076,0 -20.839563,6.28892 -22.334778,11.09015 -6.82192,1.82581 -12.7093305,5.40982 -14.2979967,10.75203 -1.4952154,5.13933 3.0838815,10.41391 6.9153707,10.41391 4.018391,0 5.88741,-1.69057 6.354665,-3.31352 0.280352,-0.94672 0.09344,-1.82581 -0.467255,-2.29918 0,0 -9.9058012,-0.94671 -8.6909387,-5.0717 2.2428229,-7.77663 15.4194067,-9.94056 26.2597177,-9.94056 23.456191,0 50.650419,6.01843 76.442881,6.01843 14.20454,0 27.10078,-1.75819 39.43631,-7.03278 l -0.93452,5.13934 c -0.1869,1.01434 -0.3738,2.0963 -0.65415,3.11065 -0.28036,1.4877 1.02796,2.56967 3.08387,2.56967 5.32672,0 3.92494,-4.05737 10.09271,-11.36063 2.14938,-2.50205 5.42016,-5.40983 9.1582,-5.40983 h 0.0935 c 3.45769,0.6086 4.01839,2.63729 3.36423,5.54507 -11.02721,4.12499 -20.27885,12.57784 -21.86752,17.7848 -0.0935,0.27049 -0.0935,0.54099 -0.1869,0.81148 -0.37381,2.56966 1.40176,3.44876 4.39219,3.65162 h 0.56071 c 10.09271,0 20.37231,-10.14342 22.52168,-17.44669 0.56071,-2.02868 0.74761,-3.85449 0.65415,-5.40982 5.42016,-1.28483 6.72848,-0.40574 7.00883,-1.35245 0.0934,-0.33812 -0.18691,-0.54099 -0.56071,-0.54099 z m -122.514201,4.12499 c -4.765999,-1.08197 -9.905801,-2.16393 -15.139055,-2.97541 7.195724,0.8791 14.391447,2.43443 21.680622,3.78689 -2.242824,-0.2705 -4.392195,-0.54099 -6.541567,-0.81148 z m 47.753441,4.32786 c -11.868275,0 -24.016898,-1.35246 -35.97862,-2.84015 -9.7189,-2.02869 -19.250897,-4.59836 -28.876346,-5.74795 3.270784,0.27049 6.448116,0.74385 9.625449,1.28483 8.410586,1.42008 16.540818,3.31352 25.138306,4.59835 -8.504037,-1.55531 -16.353917,-3.65162 -24.671051,-5.34219 -3.177333,-0.60861 -6.448116,-1.21722 -9.812351,-1.62296 3.83149,0.40574 7.569527,0.94673 11.214114,1.55533 8.877841,1.55532 17.381879,3.58401 26.446621,4.80122 -8.971292,-1.4877 -17.288427,-3.71925 -25.979366,-5.47744 -3.831489,-0.81148 -7.849879,-1.55533 -12.055173,-2.02869 9.999252,0.87909 19.624701,3.17827 29.250149,4.93646 4.85945,0.8791 9.7189,1.69058 14.6718,2.09631 -4.9529,-0.54098 -9.7189,-1.4877 -14.391447,-2.43442 -8.036783,-1.7582 -16.073565,-3.78688 -24.3907,-5.07171 2.055922,0.27049 4.205294,0.6086 6.261215,0.94672 5.607057,0.94672 11.027212,2.0963 16.447367,3.11065 14.391447,3.17827 30.558463,6.35654 46.164773,6.35654 3.08388,0 6.16777,-0.13525 9.1582,-0.40574 -5.79397,0.87911 -11.86828,1.28484 -18.22294,1.28484 z m 46.72547,-11.15777 c 0.93451,-5.07171 2.05593,-9.60244 3.17733,-13.52456 4.67255,-15.82374 10.55996,-22.38316 13.83075,-22.38316 2.33627,0 3.36423,3.38115 1.68211,9.12908 -1.49521,5.00409 -5.04634,11.90162 -11.77482,19.94874 -2.80353,3.44876 -5.1398,5.54507 -6.91537,6.8299 z m -1.68211,25.49381 c -0.1869,0 -0.3738,0.0676 -0.46726,0.0676 -1.12142,0 -2.05592,-0.6086 -1.86901,-1.96106 0,-0.20287 0.0934,-0.47336 0.0934,-0.67623 1.30832,-4.39549 9.06474,-12.03686 19.064,-16.22948 -0.9345,2.6373 -7.10227,17.1762 -16.82117,18.79915 z m -88.591508,-5.95081 c 2.99043,0 4.765999,-1.69057 5.046351,-2.63729 0.09346,-0.33811 0,-0.6086 -0.186902,-0.67623 H 71.76055 c -2.710078,0 -9.531997,-0.47336 -9.345095,-5.20695 0.09344,-0.40574 0.09344,-0.81148 0.186901,-1.21722 -0.654156,-0.0676 -1.214862,-0.13524 -1.775567,-0.20286 -0.09345,0.54097 -0.186903,1.08196 -0.280354,1.62294 0,0.81148 0,0.13525 0.09346,1.55533 0.93451,5.54507 4.765999,6.76228 7.382626,6.76228 z"
           style="font-style:normal;font-variant:normal;font-weight:normal;font-stretch:normal;font-size:medium;line-height:1.25;font-family:'Clarities Italic';-inkscape-font-specification:'Clarities Italic, ';text-align:center;letter-spacing:0px;word-spacing:0px;text-anchor:middle;fill:#000000;fill-opacity:1;stroke:#000080;stroke-width:0.5;stroke-miterlimit:4;stroke-dasharray:none;stroke-opacity:1"
           id="path959"
           inkscape:connector-curvature="0" />
        <path
           d="m 181.7713,361.69902 c 0.3738,0.94672 0.93451,1.82582 1.77557,2.56967 0.84105,0.74385 1.86901,1.35246 2.80352,1.7582 1.12142,0.40573 2.24283,0.54098 2.99043,0.67623 0.3738,0 0.74761,0.0676 1.21487,0.0676 1.77557,0 4.11184,-0.27049 6.16776,-0.94672 1.49522,-0.47336 2.61662,-1.01434 3.83149,-1.69057 1.12141,-0.67622 2.24282,-1.35245 3.27078,-2.0963 10.84032,-7.23564 24.57761,-9.60245 37.47383,-9.60245 31.67988,0 65.60258,13.79506 81.86304,13.79506 12.24207,0 20.83956,-6.28892 22.24132,-11.02252 6.72848,-1.89344 12.70934,-5.47745 14.20456,-10.81965 1.4952,-5.07171 -2.99043,-10.41392 -6.91537,-10.41392 -3.92494,0 -5.79397,1.75819 -6.26122,3.31352 -0.28036,0.94672 -0.0934,1.82582 0.46725,2.29917 0,0 9.90581,1.01435 8.7844,5.07172 -2.33628,7.77662 -15.60632,10.00818 -26.35318,10.00818 -23.45618,0 -50.74386,-6.01844 -76.44287,-6.01844 -23.17585,0 -36.63278,4.59836 -49.99626,12.57785 -1.12142,0.6086 -2.14937,1.21722 -3.36425,1.75819 -1.1214,0.54099 -2.14937,1.01434 -3.27077,1.35246 -1.12142,0.27049 -2.05593,0.40574 -2.89698,0.40574 -0.84106,0 -1.68213,-0.13525 -2.42972,-0.47336 -0.46727,-0.20287 -1.12142,-0.47336 -1.58868,-0.81147 -0.46725,-0.40574 -0.84106,-0.87911 -1.1214,-1.48771 -0.46727,-1.14959 -0.56071,-2.63728 -0.18691,-4.05736 l 0.37381,-1.28484 c 0.3738,0.20287 0.84105,0.40573 1.3083,0.47336 0.84107,0.20286 1.68213,0.27049 2.52318,0.27049 0.84106,0 1.77557,-0.0676 2.61664,-0.27049 1.86901,-0.33812 3.55113,-1.08197 5.04634,-2.02868 1.40176,-0.94672 2.52318,-2.02869 3.55113,-3.11065 0.84107,-1.14959 1.58867,-2.3668 2.05593,-3.58402 0.1869,-0.67622 0.37381,-1.28483 0.37381,-1.89344 0.0934,-0.6086 0,-1.28483 -0.28036,-1.89343 -0.7476,-1.7582 -3.08388,-2.29918 -5.51361,-2.29918 -1.68211,0 -3.36423,0.27049 -4.67255,0.60861 -0.56069,0.13524 -1.21486,0.33811 -1.86901,0.54098 -0.56071,0.27049 -1.21486,0.54098 -1.77557,0.81147 -2.52318,1.21721 -4.766,2.90778 -6.44812,4.66598 -1.68212,1.69057 -2.71008,3.38114 -3.27078,4.66597 -0.1869,0.40574 -0.37381,0.81148 -0.46725,1.28483 -0.37381,1.14959 -0.56071,2.50205 -0.56071,3.8545 0.0935,1.01435 0.28035,2.02869 0.74761,2.97541 z m 120.36483,-1.82582 c -3.36423,-0.54097 -6.72848,-1.14958 -9.99925,-1.75819 -8.31714,-1.89343 -17.38188,-3.8545 -26.54008,-5.20696 5.42016,0.60861 10.74686,1.62296 16.07356,2.6373 5.32671,1.08196 10.65342,2.23155 15.98012,3.24589 3.73804,0.74385 7.56952,1.4877 11.49446,2.09631 -2.33626,-0.33812 -4.67253,-0.67623 -7.00881,-1.01435 z m -4.67255,-5.68031 c 1.40176,0.27049 2.80353,0.54098 4.20529,0.81147 3.45769,0.67623 7.00882,1.35246 10.55996,1.82582 -3.73804,-0.40574 -7.47608,-1.01434 -11.21411,-1.62294 l -10.74687,-1.96107 c 2.42974,0.33811 4.85946,0.6086 7.19573,0.94672 z m -45.97787,-4.125 c 10.65341,0 21.49372,1.08197 32.24058,2.36681 0.46725,0.13524 0.93451,0.20286 1.49521,0.33811 5.13981,1.01435 10.18615,2.16393 15.32597,3.11065 4.67253,0.94672 9.25164,1.7582 14.01763,2.3668 -3.64459,-0.40574 -7.28917,-0.8791 -10.8403,-1.48771 -4.67255,-0.74385 -9.3451,-1.55531 -14.01765,-2.43442 -4.67255,-0.87909 -9.34509,-1.69057 -14.1111,-2.43442 4.67255,0.8791 9.25166,1.82582 13.83075,2.77254 4.57909,1.01434 9.1582,1.96106 13.83073,2.84016 3.6446,0.67623 7.38263,1.28483 11.12067,1.82582 -4.29874,-0.47337 -8.50403,-1.08197 -12.70933,-1.7582 -4.9529,-0.81148 -9.81235,-1.75819 -14.6718,-2.63729 -4.9529,-0.8791 -9.9058,-1.7582 -14.8587,-2.43443 4.9529,0.81148 9.7189,1.82582 14.57835,2.77254 4.85945,1.01435 9.62545,2.02869 14.4849,2.97541 4.39219,0.87909 8.87784,1.62294 13.45694,2.16393 -5.70052,-0.54099 -11.12067,-1.35245 -16.54083,-2.29918 -5.42014,-0.94672 -10.74686,-1.96106 -16.16701,-2.90777 -5.42016,-0.94673 -10.84032,-1.82582 -16.44737,-2.29919 -7.56953,-1.14958 -15.41941,-1.96105 -22.98893,-1.96105 -3.17734,0 -6.26121,0.13523 -9.25165,0.40573 5.79396,-0.8791 11.86828,-1.28484 18.22294,-1.28484 z m -62.05143,4.125 c 0.3738,-0.94672 0.93451,-2.23155 1.77556,-3.51638 0.84106,-1.35247 1.96247,-2.70492 3.36424,-3.78689 1.30831,-1.08196 2.80352,-1.82581 4.11184,-2.16392 1.02796,-0.33812 1.77557,-0.47337 2.33627,-0.47337 0.56071,0 0.93452,0.13525 1.30832,0.27049 0.28035,0.20288 0.65415,0.54099 0.84106,0.94672 0.3738,0.74385 0.28034,1.82582 0,2.84016 -0.28035,1.01434 -0.84106,2.09631 -1.58867,3.04303 -0.93451,1.01435 -1.86902,1.96106 -2.99043,2.77254 -1.21487,0.74385 -2.42973,1.35245 -3.83149,1.69057 -0.74761,0.13524 -1.40176,0.20286 -2.14937,0.27049 -0.74761,0 -1.40177,-0.0676 -2.05592,-0.20287 -0.56071,-0.13525 -1.21487,-0.33811 -1.58868,-0.60861 l -0.0934,-0.0676 c 0.1869,-0.33812 0.3738,-0.74386 0.56071,-1.01435 z"
           style="font-style:normal;font-variant:normal;font-weight:normal;font-stretch:normal;font-size:medium;line-height:1.25;font-family:'Clarities Italic';-inkscape-font-specification:'Clarities Italic, ';text-align:center;letter-spacing:0px;word-spacing:0px;text-anchor:middle;fill:#000000;fill-opacity:1;stroke:#000080;stroke-width:0.5;stroke-miterlimit:4;stroke-dasharray:none;stroke-opacity:1"
           id="path961"
           inkscape:connector-curvature="0" />
      </g>
      <g
         transform="translate(6.0476091,20.410714)"
         id="g1021"
         style="fill:#000000;stroke:#000080">
        <path
           inkscape:connector-curvature="0"
           id="path1000"
           style="font-style:normal;font-variant:normal;font-weight:normal;font-stretch:normal;font-size:medium;line-height:1.25;font-family:Cooless;-inkscape-font-specification:Cooless;text-align:center;letter-spacing:0px;word-spacing:0px;text-anchor:middle;fill:#000000;fill-opacity:1;stroke:#000080;stroke-width:1.04802179"
           d="m -81.062686,690.11564 q 6.886987,0 10.541309,-2.16059 4.638175,-2.9528 10.681859,-15.98831 l 0.14055,-0.21606 q 0,-0.50415 -1.124406,-0.7202 -1.124407,-0.28808 -2.529915,-0.28808 -3.373218,0 -4.919277,1.22434 -2.248811,1.94452 -6.465335,6.19366 l -6.324785,6.48176 q -8.573596,-7.63407 -8.995246,-22.97421 l -0.14055,-4.24915 q 0,-8.49829 1.96771,-13.82773 2.108257,-5.32944 5.059823,-8.21022 2.951567,-2.9528 6.043684,-4.03309 3.092117,-1.08029 5.20038,-1.08029 1.264955,0 1.96771,0.28807 0.702753,0.21606 0.702753,0.50414 -2.529913,7.99416 -2.529913,19.37324 0,4.1051 1.124405,6.26569 1.124407,2.08856 4.497625,2.08856 4.075974,0 4.075974,-1.22433 l -0.140551,-1.15231 q 0,-0.93626 0.983856,-4.46521 0.843304,-2.80875 2.248812,-9.00243 3.092117,-12.67542 3.092117,-16.34841 0,-1.29635 -0.281102,-1.87251 -0.702754,-1.15231 -4.919277,-1.22433 -4.778726,0 -6.184234,3.09684 -0.14055,0.43211 -0.421653,0.64817 -0.281101,0.21606 -0.983855,0.21606 l -5.059829,-0.21606 q -7.168088,0 -13.633425,1.87251 -6.32479,1.8725 -9.55745,5.97761 -4.638178,5.9056 -5.762588,10.15474 -1.1244,4.17714 -1.1244,10.80293 v 0.72019 q 0,33.34501 22.769224,33.34501 z" />
        <path
           inkscape:connector-curvature="0"
           id="path1002"
           style="font-style:normal;font-variant:normal;font-weight:normal;font-stretch:normal;font-size:medium;line-height:1.25;font-family:Cooless;-inkscape-font-specification:Cooless;text-align:center;letter-spacing:0px;word-spacing:0px;text-anchor:middle;fill:#000000;fill-opacity:1;stroke:#000080;stroke-width:1.04802179"
           d="m -36.325923,691.84661 q 2.248812,0 3.935421,-0.3601 1.82716,-0.43211 1.82716,-1.36836 l -0.140551,-0.3601 q -1.96771,-5.61752 -1.96771,-13.75572 v -8.1382 q 4.075973,1.15231 8.151944,2.08857 4.216524,0.93626 8.292497,0.93626 3.373219,0 5.762581,-0.57616 0.9838561,-0.21606 1.1244071,-1.00827 0,-0.50414 -0.8433041,-0.7202 -0.843306,-0.28808 -2.670465,-0.64818 -3.65432,-0.57615 -11.946817,-3.09683 -1.546058,-0.50414 -2.248812,-0.79221 -0.562204,-0.28808 -0.562204,-0.64818 0,-0.93625 5.059829,-3.96107 4.216523,-2.73674 9.135801,-6.62579 4.9192771,-3.96107 7.4491901,-8.42628 0.702755,-1.22433 0.702755,-2.30462 0,-3.31289 -5.2003801,-5.04136 -5.059828,-1.80049 -12.509019,-2.37664 -7.308641,-0.64818 -14.055078,-0.64818 -5.340929,0 -9.1358,0.21606 -3.794871,0.21606 -4.497625,0.3601 -0.562203,0.072 -1.264958,0.21606 -0.702753,0.072 -1.405508,0.28807 -0.702753,0.21606 -0.702753,0.79222 0.281102,0.79221 2.670465,1.15231 l 0.562203,0.072 q 1.686609,0.21605 3.232668,0.21605 l 3.092117,-0.072 q 1.405508,0 1.405508,0.57616 -1.686609,6.55377 -2.529915,16.49246 -0.843304,9.86666 -0.843304,18.58102 0,6.69781 0.421652,11.23503 0.421652,6.04964 4.778727,7.27397 2.248813,0.43211 4.919278,0.43211 z m 4.638176,-36.51386 -0.140552,-2.08857 q 0,-3.52895 1.827161,-14.836 0.140551,-0.79222 1.124405,-0.79222 9.838555,0.64818 9.838555,4.17713 0,2.80876 -4.075973,6.69781 -3.935421,3.81703 -8.573596,6.84185 z" />
        <path
           inkscape:connector-curvature="0"
           id="path1004"
           style="font-style:normal;font-variant:normal;font-weight:normal;font-stretch:normal;font-size:medium;line-height:1.25;font-family:Cooless;-inkscape-font-specification:Cooless;text-align:center;letter-spacing:0px;word-spacing:0px;text-anchor:middle;fill:#000000;fill-opacity:1;stroke:#000080;stroke-width:1.04802179"
           d="m 7.1272475,701.674 q 3.3732185,0 4.2165235,-1.22433 0.421652,-0.79221 0.421652,-2.66471 l -0.14055,-4.46521 q 0,-7.20195 1.546058,-13.3236 0.281102,-1.00827 0.421652,-2.08857 0.140551,-1.15231 2.389364,-1.36836 8.011394,-0.86424 16.44444,-1.15231 1.124407,0 1.546059,0.14403 0.421653,0.14404 0.421653,0.7202 0.421652,2.73674 1.405508,5.61752 1.124405,2.80875 3.092117,4.75328 2.108261,1.94452 5.903132,1.94452 1.827161,0 3.654321,-0.50413 1.82716,-0.50414 1.82716,-1.15231 0,-0.43212 -0.281101,-0.86424 -0.562204,-0.86423 -0.983856,-4.75328 l -0.421652,-3.16886 q 0,-0.50413 0.562202,-0.64817 0.562204,-0.14404 1.405508,-0.21606 0.843305,-0.072 1.405508,-0.21606 0.702755,-0.14404 0.702755,-0.72019 -0.281103,-1.15231 -1.124407,-1.80049 -0.702755,-0.64817 -2.811016,-1.08029 -0.983856,-0.14404 -1.264957,-0.79222 -0.140551,-0.72019 -0.702753,-4.4652 l -1.405508,-9.07445 q -1.405508,-9.65061 -1.82716,-15.34014 -0.562204,-7.12993 -1.827161,-9.79466 -1.264956,-2.73673 -6.043684,-3.02481 -1.82716,-0.21606 -3.373218,-0.21606 -6.465336,0 -9.698004,3.31289 -6.886988,6.91387 -12.509019,18.36497 -5.6220312,11.45109 -8.7141484,21.74988 -0.1405508,0.50413 -0.98385548,0.72019 -0.7027539,0.21606 -2.52991412,0.50414 -2.6704647,0.28807 -9.276351,1.65644 -2.108262,0.50414 -2.108262,1.08029 0,0.7202 2.389363,1.22433 2.3893634,0.43212 6.0436837,0.43212 2.9515663,0 4.0759726,-0.64818 0.42165237,-0.28807 0.70275392,-0.28807 l 0.28110157,0.36009 -0.28110157,2.16059 q -0.84330462,3.67299 -0.84330462,8.57032 0,11.73916 8.2924959,11.73916 z m 8.5735975,-28.66374 q -0.702754,0 -0.702754,-0.28808 l 0.140551,-0.57615 q 2.108261,-7.41801 5.200378,-14.33188 3.092117,-6.98588 5.762583,-11.52311 2.670465,-4.60924 3.513769,-4.96934 2.248813,19.80535 3.232669,25.78297 0.562202,3.45693 0.562202,4.4652 0,0.72019 -0.562202,0.72019 h -2.389364 q -5.340929,0 -8.573598,0.21606 -3.092117,0.21606 -4.497625,0.3601 -1.264956,0.14404 -1.686609,0.14404 z" />
        <path
           inkscape:connector-curvature="0"
           id="path1006"
           style="font-style:normal;font-variant:normal;font-weight:normal;font-stretch:normal;font-size:medium;line-height:1.25;font-family:Cooless;-inkscape-font-specification:Cooless;text-align:center;letter-spacing:0px;word-spacing:0px;text-anchor:middle;fill:#000000;fill-opacity:1;stroke:#000080;stroke-width:1.04802179"
           d="m 64.504906,688.20636 q 7.308641,0 19.81766,-1.5124 1.124407,-0.14404 2.108263,-0.21606 1.124405,-0.14404 2.248811,-0.50414 1.124407,-0.43211 1.124407,-0.93625 0,-0.64817 -2.108263,-1.08029 -1.96771,-0.50414 -4.497625,-0.50414 -3.935421,0 -8.292495,0.57616 -2.670465,0.3601 -5.059828,0.50414 2.389363,-4.17714 4.497625,-8.1382 5.762581,-10.65889 11.946815,-20.45353 6.324787,-9.79465 15.038934,-19.30121 1.96771,-2.23261 1.96771,-3.45694 0,-1.36837 -2.95156,-2.2326 -4.075978,-1.15231 -9.83856,-1.44039 -5.62203,-0.28808 -10.681859,-0.28808 -11.525163,-0.14403 -15.320035,-0.36009 l -3.513769,-0.072 q -2.108261,0 -3.794872,0.43211 -1.546058,0.3601 -1.546058,0.93626 0,0.50413 1.827161,1.00827 5.62203,1.15231 16.303889,1.15231 h 1.264958 q 14.33618,0.14404 14.33618,1.15231 0,1.00827 -2.811016,3.81703 -10.400758,11.23503 -20.379864,29.02385 l -6.886987,12.31532 q -3.935423,6.55377 -3.935423,7.63406 0,0.50414 0.421652,0.72019 0.421654,0.21606 1.264958,0.43212 l 0.14055,0.072 q 2.811016,0.72019 7.308641,0.72019 z" />
        <path
           inkscape:connector-curvature="0"
           id="path1008"
           style="font-style:normal;font-variant:normal;font-weight:normal;font-stretch:normal;font-size:medium;line-height:1.25;font-family:Cooless;-inkscape-font-specification:Cooless;text-align:center;letter-spacing:0px;word-spacing:0px;text-anchor:middle;fill:#000000;fill-opacity:1;stroke:#000080;stroke-width:1.04802179"
           d="m 132.43705,696.63264 q 3.93542,0 7.44919,-1.00827 3.51377,-0.93625 5.48148,-2.9528 3.79487,-4.75328 5.62204,-15.70024 1.82716,-10.94695 2.81101,-21.74987 1.54606,-13.75572 1.54606,-17.50073 0,-3.02482 -0.98385,-4.03309 -1.40551,-1.22433 -6.887,-1.22433 -3.09211,0 -4.91927,0.57615 -1.82716,0.57616 -2.24881,1.36837 -2.81102,4.17713 -7.30865,11.88321 -4.07597,6.69781 -7.58974,12.24331 -3.51377,5.5455 -4.77872,6.12165 -0.84331,-5.83357 -0.84331,-10.65887 0,-4.60925 0.42165,-8.57032 0.28111,-3.60098 0.28111,-7.05791 0,-2.37664 -0.28111,-4.8253 0,-1.15231 -1.26495,-1.72847 -1.12441,-0.57615 -5.90314,-0.57615 -2.38936,0 -3.65432,0.36009 -1.26495,0.28808 -1.68661,1.58443 -0.2811,1.22433 -0.42165,4.03309 l -0.14055,1.94453 q -0.98385,10.22676 -0.98385,17.35668 0,7.49003 1.68661,11.59514 1.82716,4.10511 6.32478,4.68126 2.95157,0.3601 5.34093,0.3601 5.20038,0 7.87084,-1.51241 2.81102,-1.51241 4.49763,-4.17712 1.68661,-2.73675 3.23267,-6.40974 1.82716,-4.60925 5.20038,-10.22676 l -1.26496,12.02725 q -0.2811,5.32944 -1.96771,14.54793 -1.54606,9.14647 -5.05983,14.18783 -0.14055,0.50414 -0.84331,0.50414 -0.42165,-0.14404 -0.98385,-0.3601 -0.42165,-0.21606 -1.26496,-0.50413 -0.70275,-0.28808 -1.40551,-0.64818 -0.70275,-0.28808 -0.98385,-0.93625 -0.2811,-0.57616 -3.79487,-0.57616 -2.24881,0 -4.49763,0.43212 -2.24881,0.50414 -2.24881,1.58443 0,0.79221 1.82716,2.01654 6.74644,3.52895 14.61728,3.52895 z" />
      </g>
    </g>
  </g>
  <style
     id="style815"
     type="text/css">
	.st0{fill:#161616;}
	.st1{fill:#FFFFFF;}
</style>
</svg>
