<?xml version="1.0" encoding="utf-8"?>
<svg width="200px" version="1.1" id="Layer_1" xmlns="http://www.w3.org/2000/svg" xmlns:xlink="http://www.w3.org/1999/xlink" x="0px" y="0px"
	 viewBox="0 0 2574.208 5000" enable-background="new 0 0 2574.208 5000" xml:space="preserve">
<g>
	<g>
		<g>
			<rect x="1556.002" y="1884.037" fill="#4D5154" width="97.869" height="3059.629"/>
			<rect x="748.311" y="3816.168" fill="#4D5154" width="92.114" height="1127.499"/>
			<rect x="748.311" y="3790.422" fill="#4D5154" width="824.085" height="164.707"/>
			<rect x="2474.709" y="1884.037" fill="#585D60" width="99.498" height="3059.629"/>
			<rect x="1558.316" y="3816.168" fill="#585D60" width="97.869" height="1127.499"/>
			<rect x="1559.388" y="3790.422" fill="#585D60" width="1014.819" height="164.707"/>
			
				<linearGradient id="SVGID_1_" gradientUnits="userSpaceOnUse" x1="196.8482" y1="1272.687" x2="1868.6973" y2="1272.687" gradientTransform="matrix(-1 0 0 -1 2623.5144 5000)">
				<stop  offset="0" style="stop-color:#323537"/>
				<stop  offset="0.3496" style="stop-color:#2D3032"/>
				<stop  offset="0.7832" style="stop-color:#1F2122"/>
				<stop  offset="1" style="stop-color:#161718"/>
			</linearGradient>
			<path fill="url(#SVGID_1_)" d="M801.338,3664.472h1578.807c25.693,0,46.521,20.828,46.521,46.521v32.64
				c0,25.693-20.828,46.521-46.521,46.521H801.338c-25.693,0-46.521-20.828-46.521-46.521v-32.64
				C754.818,3685.301,775.646,3664.472,801.338,3664.472z"/>
			<rect x="1559.388" y="2040.158" fill="#585D60" width="1014.819" height="1010.74"/>
			
				<linearGradient id="SVGID_2_" gradientUnits="userSpaceOnUse" x1="192.2981" y1="2454.4722" x2="1137.7661" y2="2454.4722" gradientTransform="matrix(-1 0 0 -1 2623.5144 5000)">
				<stop  offset="0" style="stop-color:#323537"/>
				<stop  offset="0.3496" style="stop-color:#2D3032"/>
				<stop  offset="0.7832" style="stop-color:#1F2122"/>
				<stop  offset="1" style="stop-color:#161718"/>
			</linearGradient>
			<path fill="url(#SVGID_2_)" d="M1558.02,2074.765h800.924c39.915,0,72.272,32.357,72.272,72.272v796.982
				c0,39.915-32.357,72.272-72.272,72.272H1558.02c-39.915,0-72.272-32.357-72.272-72.272v-796.982
				C1485.748,2107.123,1518.105,2074.765,1558.02,2074.765z"/>
		</g>
		<g>
			
				<linearGradient id="SVGID_3_" gradientUnits="userSpaceOnUse" x1="1071.0704" y1="2824.4016" x2="896.5466" y2="2898.8652" gradientTransform="matrix(1 0 0 -1 0 5000)">
				<stop  offset="0" style="stop-color:#F9A867"/>
				<stop  offset="0.4216" style="stop-color:#F8A564"/>
				<stop  offset="0.7062" style="stop-color:#F39C5B"/>
				<stop  offset="0.9496" style="stop-color:#EB8D4C"/>
				<stop  offset="1" style="stop-color:#E98948"/>
			</linearGradient>
			<path fill="url(#SVGID_3_)" d="M908.977,2100.416l15.717,33.497c0,0,28.637-2.401,37.633,18.196l111.657,19.437
				c0,0-59.605-40.962-92.636-57.07C959.943,2104.037,908.977,2100.416,908.977,2100.416z"/>
			<path fill="#F9A867" d="M996.261,2434.485C914.042,2330.494,731.1,2162.959,606.35,2039.21l-47.644,70.872
				c72.06,40.034,168.695,588.157,415.036,579.056C1092.24,2684.331,1105.061,2572.095,996.261,2434.485z"/>
			<g>
				<path fill="#7E8083" d="M399.443,2112.592c-2.349,4.129-5.307,6.88-6.608,6.143c-1.301-0.74-0.451-4.69,1.897-8.819
					c2.349-4.133,5.307-6.88,6.605-6.143C402.638,2104.513,401.788,2108.463,399.443,2112.592z"/>
				<path fill="#33363A" d="M399.559,2114.239c19.444-15.033,76.07-99.851,139.42-211.314
					c71.489-125.794,128.04-228.579,111.685-237.874c-16.337-9.285-75.71,91.896-147.199,217.69
					c-63.35,111.463-107.246,203.521-110.211,227.916L399.559,2114.239z"/>
				
					<rect x="541.361" y="1813.384" transform="matrix(0.4941 -0.8694 0.8694 0.4941 -1313.4279 1410.0675)" fill="#A8ACB1" width="27.102" height="40.473"/>
				<path opacity="0.4" fill="#A8ACB1" enable-background="new    " d="M412.836,2080.637
					c11.728-12.49,64.514-105.842,111.051-187.723c52.517-92.407,109.626-190.629,102.676-194.578
					c-6.943-3.946-65.251,93.592-117.768,185.999c-46.537,81.884-93.909,178.308-98.638,194.779L412.836,2080.637z"/>
			</g>
			
				<linearGradient id="SVGID_4_" gradientUnits="userSpaceOnUse" x1="1775.6261" y1="2629.0842" x2="1358.8368" y2="3331.5374" gradientTransform="matrix(-0.9081 -0.0336 0.0307 -0.8298 2465.6372 4904.4966)">
				<stop  offset="0" style="stop-color:#F9A867"/>
				<stop  offset="0.4216" style="stop-color:#F8A564"/>
				<stop  offset="0.7062" style="stop-color:#F39C5B"/>
				<stop  offset="0.9496" style="stop-color:#EB8D4C"/>
				<stop  offset="1" style="stop-color:#E98948"/>
			</linearGradient>
			<path fill="url(#SVGID_4_)" d="M1515.69,1672.731c-170.875,69.8-282.592,349.387-387.855,506.276
				C954.4,2437.493,839.39,2628.055,942.749,2682.561c104.784,55.261,297.973-184.913,473.577-454.002
				c156.924-240.477,233.943-401.203,190.474-505.433C1573.412,1643.064,1515.69,1672.731,1515.69,1672.731z"/>
			
				<linearGradient id="SVGID_5_" gradientUnits="userSpaceOnUse" x1="479.979" y1="1514.162" x2="479.979" y2="3412.6494" gradientTransform="matrix(-0.9509 0.3094 -0.3094 -0.9509 2793.2202 4559.2544)">
				<stop  offset="0" style="stop-color:#F1CDD4"/>
				<stop  offset="0.3677" style="stop-color:#F0C9D1"/>
				<stop  offset="0.6952" style="stop-color:#EDBFCA"/>
				<stop  offset="1" style="stop-color:#E7ADBD"/>
			</linearGradient>
			<path fill="url(#SVGID_5_)" d="M1625.238,1624.424c86.144,75.654,74.444,233.59-209.53,622.324
				c0,0-110.391-100.997-256.454-199.498C1159.254,2047.25,1503.922,1517.873,1625.238,1624.424z"/>
			<polygon fill="#F1DBE0" points="1189.658,1978.702 1114.357,2080.919 1342.784,2296.024 1432.113,2192.086 			"/>
			
				<radialGradient id="SVGID_6_" cx="1675.9863" cy="5026.061" r="1356.4922" gradientTransform="matrix(1 0 0 -1 0 5000)" gradientUnits="userSpaceOnUse">
				<stop  offset="0" style="stop-color:#DF7B32"/>
				<stop  offset="0.1744" style="stop-color:#D77631"/>
				<stop  offset="0.6137" style="stop-color:#CA6D2E"/>
				<stop  offset="1" style="stop-color:#C56A2D"/>
			</radialGradient>
			<path fill="url(#SVGID_6_)" d="M2139.061,975.724c0,0,46.801,66.048,132.332,38.874c85.531-27.177,108.766-206.36,108.766-206.36
				s25.139,186.401-108.766,237.374c-112.969,43.007-183.199-69.888-183.199-69.888L2139.061,975.724L2139.061,975.724z"/>
			<path opacity="0.3" fill="#C56A2D" enable-background="new    " d="M2139.061,975.724c0,0,46.801,66.048,132.332,38.874
				c85.531-27.177,108.766-206.36,108.766-206.36s25.139,186.401-108.766,237.374c-112.969,43.007-183.199-69.888-183.199-69.888
				L2139.061,975.724L2139.061,975.724z"/>
			
				<radialGradient id="SVGID_7_" cx="1660.5383" cy="5080.9092" r="1360.9063" gradientTransform="matrix(1 0.0091 0.0091 -1 -6.9907 4988.7124)" gradientUnits="userSpaceOnUse">
				<stop  offset="0" style="stop-color:#DF7B32"/>
				<stop  offset="0.1744" style="stop-color:#D77631"/>
				<stop  offset="0.6137" style="stop-color:#CA6D2E"/>
				<stop  offset="1" style="stop-color:#C56A2D"/>
			</radialGradient>
			<path fill="url(#SVGID_7_)" d="M2138.563,251.966c0,0-3.015-63.326,108.776-72.593
				c111.791-9.264,122.864,109.189,122.864,109.189s136.324,55.934,149.826,287.878c13.506,231.947-145.891,275.655-145.891,275.655
				s-14.698,103.628-77.519,135.216c-62.818,31.585-116.079-32.59-116.079-32.59L2138.563,251.966z"/>
			<path opacity="0.3" fill="#C56A2D" enable-background="new    " d="M2138.563,251.966c0,0-3.015-63.326,108.776-72.593
				c111.791-9.264,122.864,109.189,122.864,109.189s136.324,55.934,149.826,287.878c13.506,231.947-145.891,275.655-145.891,275.655
				s-14.698,103.628-77.519,135.216c-62.818,31.585-116.079-32.59-116.079-32.59L2138.563,251.966z"/>
			
				<linearGradient id="SVGID_8_" gradientUnits="userSpaceOnUse" x1="2374.4395" y1="4353.5552" x2="2515.3616" y2="4353.5552" gradientTransform="matrix(0.999 -0.0438 -0.0438 -0.999 35.2304 5055.8564)">
				<stop  offset="0" style="stop-color:#323537"/>
				<stop  offset="0.3496" style="stop-color:#2D3032"/>
				<stop  offset="0.7832" style="stop-color:#1F2122"/>
				<stop  offset="1" style="stop-color:#161718"/>
			</linearGradient>
			<path fill="url(#SVGID_8_)" d="M2210.669,306.331c0,0,164.291,137.554,145.33,331.41
				c-18.964,193.855-126.411,260.929-126.411,260.929L2210.669,306.331z"/>
			
				<radialGradient id="SVGID_9_" cx="1673.0054" cy="5040.6636" r="1360.9518" gradientTransform="matrix(1 0 0 -1 0 5000)" gradientUnits="userSpaceOnUse">
				<stop  offset="0" style="stop-color:#DF7B32"/>
				<stop  offset="0.1744" style="stop-color:#D77631"/>
				<stop  offset="0.6137" style="stop-color:#CA6D2E"/>
				<stop  offset="1" style="stop-color:#C56A2D"/>
			</radialGradient>
			<path fill="url(#SVGID_9_)" d="M990.446,311c63.213-175.875,672.429-480.897,935.855-191.472
				c491.088,36.243,480.336,1013.13-98.423,1168.267c-289.098,77.494-617.75-50.934-681.749-315.245
				C1078.533,693.382,897.605,569.316,990.446,311z"/>
			<path opacity="0.3" fill="#C56A2D" enable-background="new    " d="M2096.265,565.733
				c-175.071,85.435-544.635-43.01-544.635-43.01l85.594,614.946l160.292,155.525c10.096-2.2,20.354-2.726,30.369-5.409
				c431.317-115.603,546.737-687.26,374.515-986.193C2215.402,348.64,2242.219,494.534,2096.265,565.733z"/>
			<path fill="#33363A" d="M2219.471,3011.707c0,0-170.663-87.164-411.665-36.385c-73.019-39.283-225.998-134.948-523.654,47.912
				c-112.5,30.686-364.568-58.833-396.678,182.388c-61.668,463.248,369.808,506.082,937.096,461.517
				C2160.574,3639.697,2323.649,3337.174,2219.471,3011.707z"/>
			<path opacity="0.3" fill="#38434C" enable-background="new    " d="M1284.156,3023.223c-9.754,2.666-21.708,3.533-33.317,4.687
				c81.031,9.934,339.538,48.219,525.353,151.846c196.677,109.728,327.122,205.362,440.866,202.414
				c25.058-66.637,35.439-140.703,29.885-219.414l-847.57-199.484C1363.434,2978.82,1325.512,2997.82,1284.156,3023.223z"/>
			<path opacity="0.3" fill="#38434C" enable-background="new    " d="M2233.03,3072.758l-167.355-11.672
				c0,0-134.624,278.882-258.468,325.447c-115.057,43.271-550.27,59.182-905.902,15.667
				c78.792,274.802,451.83,301.961,923.269,264.928C2139.297,3641.425,2299.222,3373.929,2233.03,3072.758z"/>
			<path fill="#41334C" d="M1041.676,4945.599c0,0-157.041-5.311-156.804,27.981c0.219,30.866,251.296,44.513,246.055-14.79
				C1127.432,4919.226,1041.676,4945.599,1041.676,4945.599z"/>
			<path fill="#F29C58" d="M1042.603,4945.253c0,0-105.109-2.606-101.688,21.035c3.421,23.64,189.857,19.289,190.449-11.45
				C1131.96,4924.103,1042.603,4945.253,1042.603,4945.253z"/>
			
				<linearGradient id="SVGID_10_" gradientUnits="userSpaceOnUse" x1="2097.8989" y1="249.0836" x2="780.6946" y2="2260.979" gradientTransform="matrix(-1.003 0.0762 9.000000e-04 -0.9971 2766.5718 4899.1138)">
				<stop  offset="0" style="stop-color:#F29C58"/>
				<stop  offset="0.3496" style="stop-color:#EE9753"/>
				<stop  offset="0.7832" style="stop-color:#E38744"/>
				<stop  offset="1" style="stop-color:#DB7D3A"/>
			</linearGradient>
			<path fill="url(#SVGID_10_)" d="M980.78,3443.122c-20.562,106.682,108.54,1247.828,56.1,1504.981l94.022-0.476
				c0,0,147.22-625.166,161.339-863.908c25.344-428.5-15.749-694.521-172.148-746.478
				C1030.17,3307.37,988.884,3401.075,980.78,3443.122z"/>
			<path opacity="0.3" fill="#E98948" enable-background="new    " d="M1163.316,3365.854
				c-58.417,34.974-123.276,206.733-170.264,390.102c8.865,125.6,20.294,274.844,30.693,427.015
				C1228.116,3857.101,1163.316,3365.854,1163.316,3365.854z"/>
			<path fill="#41334C" d="M660.563,4633.965c0,0-152.799-36.656-159.234-3.992c-5.967,30.284,237.293,93.941,244.035,34.791
				C749.863,4625.301,660.563,4633.965,660.563,4633.965z"/>
			<path fill="#F9A867" d="M661.54,4633.813c0,0-102.457-23.605-103.839,0.24c-1.382,23.848,182.145,56.925,188.883,26.927
				C753.322,4630.985,661.54,4633.813,661.54,4633.813z"/>
			
				<linearGradient id="SVGID_11_" gradientUnits="userSpaceOnUse" x1="2379.4275" y1="454.8934" x2="1065.1852" y2="2462.2644" gradientTransform="matrix(-0.9979 -0.1262 0.2005 -0.9767 2602.1091 5167.9209)">
				<stop  offset="0" style="stop-color:#F9A867"/>
				<stop  offset="0.3496" style="stop-color:#F6A362"/>
				<stop  offset="0.7832" style="stop-color:#EE9352"/>
				<stop  offset="1" style="stop-color:#E98948"/>
			</linearGradient>
			<path fill="url(#SVGID_11_)" d="M902.045,3149.783C860.536,3250.184,759.25,4390.279,656.37,4631.722l91.437,22.145
				c0,0,269.445-583.012,331.092-814.088c110.649-414.747,123.668-683.607-19.155-765.834
				C977.624,3026.668,918.407,3110.207,902.045,3149.783z"/>
			
				<linearGradient id="SVGID_12_" gradientUnits="userSpaceOnUse" x1="864.9922" y1="1659.6918" x2="864.9922" y2="3480.9846" gradientTransform="matrix(-1 0 0 -1 2623.5144 5000)">
				<stop  offset="0" style="stop-color:#FBDAE1"/>
				<stop  offset="0.3677" style="stop-color:#FAD6DE"/>
				<stop  offset="0.6952" style="stop-color:#F7CCD7"/>
				<stop  offset="1" style="stop-color:#F3BACA"/>
			</linearGradient>
			<path fill="url(#SVGID_12_)" d="M2257.135,3329.889c-155.193,36-390.789-344.552-1004.918-308.919
				c130.957-96.494,212.291-118.562,205.535-332.08c-4.884-154.47-135.745-321.194-150.566-505.712
				c-21.359-265.951,106.346-588.615,399.535-632.37c208.564-31.127,392.129,73.531,465.723,346.241
				c47.87,177.377-15.311,432.47-6.7,708.93C2174.359,2882.439,2296.172,3024.049,2257.135,3329.889z"/>
			<path opacity="0.5" fill="#D6BBDA" enable-background="new    " d="M1822.493,2194.738
				c-317.569,162.634-457.849,77.318-508.089,21.909c22.858,147.587,105.729,283.646,132.039,411.425l-0.705,0.345
				c4.242,20.149,11.39,40.729,12.014,60.476c0.645,20.273-3.209,31.723-4.119,48.765l0,0
				c-8.724,162.51-82.911,195.968-201.423,283.304c157.02-9.108,280.984,20.918,394.305,51.086
				c454.013-470.346,458.858-1299.985,458.858-1299.985L1822.493,2194.738z"/>
			<path opacity="0.5" fill="#D6BBDA" enable-background="new    " d="M1694.421,1830.371l-78.566-109.206l-104.753,87.199
				l6.612-178.982c16.842-19.969,60.892-64.454,156.484-80.001c69.997-11.39,138.298-3.629,201.405,18.302
				c0.702,0.356,1.432,0.444,2.137,0.804C1877.74,1568.486,1847.279,1703.879,1694.421,1830.371z"/>
			
				<linearGradient id="SVGID_13_" gradientUnits="userSpaceOnUse" x1="506.8162" y1="3310.9138" x2="506.8162" y2="3518.49" gradientTransform="matrix(-0.987 0.1608 -0.1608 -0.987 2748.1033 4777.5923)">
				<stop  offset="0" style="stop-color:#F9A867"/>
				<stop  offset="0.4216" style="stop-color:#F8A564"/>
				<stop  offset="0.7062" style="stop-color:#F39C5B"/>
				<stop  offset="0.9496" style="stop-color:#EB8D4C"/>
				<stop  offset="1" style="stop-color:#E98948"/>
			</linearGradient>
			<polygon fill="url(#SVGID_13_)" points="1621.275,1562.322 1593.671,1336.194 1758.988,1308.921 1794.032,1539.359 
				1631.857,1611.19 			"/>
			<path fill="#F9A867" d="M1085.166,903.67c8.907-332.757-62.194-620.278,419.846-612.693
				c386.829,6.09,483.57,306.898,460.17,632.049c55.843-57.994,131.605,25.04,92.855,120.339
				c-29.938,73.626-83.954,80.594-142.1,104.569c-86.285,223.847-338.007,342.535-478.845,347.063
				c-204.332,6.569-377.985-276.523-388.712-380.958C1040.509,1037.402,1083.318,972.624,1085.166,903.67z"/>
			
				<linearGradient id="SVGID_14_" gradientUnits="userSpaceOnUse" x1="818.1367" y1="4265.6763" x2="1045.3566" y2="4265.6763" gradientTransform="matrix(-0.9993 0.0363 -0.0363 -0.9993 2709.45 4937.833)">
				<stop  offset="0" style="stop-color:#DF7B32"/>
				<stop  offset="0.1744" style="stop-color:#D77631"/>
				<stop  offset="0.6137" style="stop-color:#CA6D2E"/>
				<stop  offset="1" style="stop-color:#C56A2D"/>
			</linearGradient>
			<path fill="url(#SVGID_14_)" d="M1509.586,666.572c-9.549,22.466,42.968,11.647,122.684,38.243
				c64.747,21.602,95.644,81.077,105.193,58.611s-29.903-70.311-92.83-97.058C1581.706,639.624,1519.135,644.106,1509.586,666.572z"
				/>
			<path fill="#E98948" d="M1954.645,963.106c63.385-7.804,59.133,72.529,36.385,96.674s-80.88,28.958-80.88,28.958
				L1954.645,963.106z"/>
			<g>
				<g>
					<g>
						<path id="SVGID_15_" fill="#D7CAC1" d="M1481.238,958.452c-4.122-33.087,29.371-105.208,94.491-110.13
							c80.77-6.104,124.659,40.094,130.745,89.399C1715.078,1007.422,1489.422,1024.126,1481.238,958.452z"/>
					</g>
					<g>
						<defs>
							<path id="SVGID_16_" d="M1481.238,958.452c-4.122-33.087,29.371-105.208,94.491-110.13
								c80.77-6.104,124.659,40.094,130.745,89.399C1715.078,1007.422,1489.422,1024.126,1481.238,958.452z"/>
						</defs>
						<clipPath id="SVGID_17_">
							<use xlink:href="#SVGID_16_"  overflow="visible"/>
						</clipPath>
						
							<linearGradient id="SVGID_18_" gradientUnits="userSpaceOnUse" x1="1757.3429" y1="4113.6528" x2="1735.2643" y2="3937.0242" gradientTransform="matrix(0.9988 -0.0364 -0.066 -0.9978 97.742 5033.8237)">
							<stop  offset="0" style="stop-color:#784034"/>
							<stop  offset="0.4648" style="stop-color:#814638"/>
							<stop  offset="1" style="stop-color:#91503F"/>
						</linearGradient>
						<path clip-path="url(#SVGID_17_)" fill="url(#SVGID_18_)" d="M1673.115,943.948c3.773,57.056-36.36,104.883-89.639,106.826
							c-53.276,1.943-99.523-42.732-103.296-99.784c-3.77-57.056,36.363-104.883,89.639-106.826
							C1623.098,842.221,1669.342,886.896,1673.115,943.948z"/>
					</g>
				</g>
				
					<linearGradient id="SVGID_20_" gradientUnits="userSpaceOnUse" x1="1816.8802" y1="4130.4561" x2="1805.3828" y2="4038.4758" gradientTransform="matrix(0.9988 -0.0364 -0.066 -0.9978 97.742 5033.8237)">
					<stop  offset="0" style="stop-color:#5E261B"/>
					<stop  offset="0.4277" style="stop-color:#672B1E"/>
					<stop  offset="1" style="stop-color:#7A3725"/>
				</linearGradient>
				<path fill="url(#SVGID_20_)" d="M1509.984,881.67c2.768,4.009,44.601-49.813,124.327-26.264
					c79.726,23.545,71.059,93.549,71.059,93.549l58.819-41.956l-50.751,2.123c0,0-16.626-59.108-82.579-73.347
					C1553.686,819.109,1507.216,877.664,1509.984,881.67z"/>
			</g>
			<g>
				<g>
					<g>
						<path id="SVGID_19_" fill="#D7CAC1" d="M1296.97,938.789c2.81-33.652-28.196-106.985-85.252-111.946
							c-70.759-6.157-108.021,40.863-112.165,91.018C1093.7,988.757,1291.385,1005.591,1296.97,938.789z"/>
					</g>
					<g>
						<defs>
							<path id="SVGID_21_" d="M1296.97,938.789c2.81-33.652-28.196-106.985-85.252-111.946
								c-70.759-6.157-108.021,40.863-112.165,91.018C1093.7,988.757,1291.385,1005.591,1296.97,938.789z"/>
						</defs>
						<clipPath id="SVGID_22_">
							<use xlink:href="#SVGID_21_"  overflow="visible"/>
						</clipPath>
						
							<linearGradient id="SVGID_23_" gradientUnits="userSpaceOnUse" x1="1028.4594" y1="4132.6182" x2="1007.1599" y2="3962.2219" gradientTransform="matrix(0.9993 0.0373 0.0373 -0.9993 13.8405 4942.2363)">
							<stop  offset="0" style="stop-color:#784034"/>
							<stop  offset="0.4648" style="stop-color:#814638"/>
							<stop  offset="1" style="stop-color:#91503F"/>
						</linearGradient>
						<path clip-path="url(#SVGID_22_)" fill="url(#SVGID_23_)" d="M1277.678,933.524c-1.834,55.169-45.761,98.13-98.113,95.951
							c-52.348-2.179-93.299-48.674-91.462-103.843c1.837-55.173,45.761-98.134,98.113-95.954
							C1238.564,831.857,1279.515,878.351,1277.678,933.524z"/>
					</g>
				</g>
				
					<linearGradient id="SVGID_24_" gradientUnits="userSpaceOnUse" x1="1574.4297" y1="4152.105" x2="1562.6866" y2="4058.1606" gradientTransform="matrix(-0.9993 -0.0373 0.0373 -0.9993 2588.0171 5038.6055)">
					<stop  offset="0" style="stop-color:#5E261B"/>
					<stop  offset="0.4277" style="stop-color:#672B1E"/>
					<stop  offset="1" style="stop-color:#7A3725"/>
				</linearGradient>
				<path fill="url(#SVGID_24_)" d="M1286.666,887.848c-4.168,3.89-38.814-70.42-117.133-46.801
					c-78.323,23.623-67.508,94.886-67.508,94.886l-40.433-53.106l29.519,14.613c0,0,17.145-58.375,81.222-76.348
					C1250.723,799.098,1290.834,883.955,1286.666,887.848z"/>
			</g>
			<path fill="#E98948" d="M1360.592,1140.593l-0.381,0.06c-46.925,3.646-84.314-24.455-100.334-53.917
				c-7.846-14.313-9.137-26.772-3.392-34.209c11.401-15.452,45.683-14.444,59.63-13.016c6.693-8.957,24.741-37.573,29.875-89.35
				c0.515-4.394,4.919-7.705,8.915-7.229c4.57,0.388,7.73,4.422,7.423,8.883c-7.208,69.257-35.468,100.394-36.638,101.748
				c-1.686,1.823-4.299,2.708-6.88,2.507c-16.39-2.038-43.779-1.534-49.464,6.287c-0.582,1.361-0.427,8.89,7.268,20.872
				c13.552,20.907,43.155,44.199,82.124,41.166c4.471-0.282,8.312,3.061,8.784,7.5
				C1367.775,1136.174,1364.813,1139.958,1360.592,1140.593z"/>
			
				<linearGradient id="SVGID_25_" gradientUnits="userSpaceOnUse" x1="1320.891" y1="4283.4785" x2="1484.5486" y2="4283.4785" gradientTransform="matrix(-0.9993 0.0363 -0.0363 -0.9993 2709.45 4937.833)">
				<stop  offset="0" style="stop-color:#DF7B32"/>
				<stop  offset="0.1744" style="stop-color:#D77631"/>
				<stop  offset="0.6137" style="stop-color:#CA6D2E"/>
				<stop  offset="1" style="stop-color:#C56A2D"/>
			</linearGradient>
			<path fill="url(#SVGID_25_)" d="M1230.341,659.583c12.663,18.485-31.187,15.498-86.948,46.241
				c-45.292,24.97-54.936,78.122-67.603,59.637c-12.663-18.485,6.344-62.419,49.019-91.659
				C1167.488,644.564,1217.674,641.098,1230.341,659.583z"/>
			
				<linearGradient id="SVGID_26_" gradientUnits="userSpaceOnUse" x1="916.7894" y1="2534.6548" x2="540.1713" y2="3169.4038" gradientTransform="matrix(-0.9048 0.0849 -0.0776 -0.8267 2543.7988 4747.0254)">
				<stop  offset="0" style="stop-color:#F9A867"/>
				<stop  offset="0.4216" style="stop-color:#F8A564"/>
				<stop  offset="0.7062" style="stop-color:#F39C5B"/>
				<stop  offset="0.9496" style="stop-color:#EB8D4C"/>
				<stop  offset="1" style="stop-color:#E98948"/>
			</linearGradient>
			<path fill="url(#SVGID_26_)" d="M1965.517,1671.673c-160.334,91.448-234.708,383.197-318.655,552.453
				c-138.309,278.861-227.535,482.773-117.962,523.365c111.086,41.148,271.367-222.126,410.449-511.784
				c124.288-258.859,179.729-428.242,123.065-525.928C2018.887,1634.745,1965.517,1671.673,1965.517,1671.673z"/>
			
				<linearGradient id="SVGID_27_" gradientUnits="userSpaceOnUse" x1="-211.7509" y1="1219.2583" x2="-211.7509" y2="3036.7126" gradientTransform="matrix(-0.9026 0.4305 -0.4305 -0.9026 2822.9485 4362.6157)">
				<stop  offset="0" style="stop-color:#FBDAE1"/>
				<stop  offset="0.3677" style="stop-color:#FAD6DE"/>
				<stop  offset="0.6952" style="stop-color:#F7CCD7"/>
				<stop  offset="1" style="stop-color:#F3BACA"/>
			</linearGradient>
			<path fill="url(#SVGID_27_)" d="M2029.748,1653.964c95.256,63.798,142.315,177.465-88.644,599.857
				c0,0-97.016-71.034-254.66-149.685C1686.444,2104.136,1895.593,1564.113,2029.748,1653.964z"/>
			<path fill="#F9A867" d="M1574.699,2450.984c-108.117-76.715-330.75-186.126-485.231-269.858l-25.823,81.398
				c80.407,18.185,327.09,517.109,560.962,439.188C1736.983,2663.818,1717.769,2552.5,1574.699,2450.984z"/>
			<g>
				
					<linearGradient id="SVGID_28_" gradientUnits="userSpaceOnUse" x1="1728.5225" y1="3721.741" x2="1717.4927" y2="3633.5027" gradientTransform="matrix(0.9918 -0.1281 -0.1281 -0.9918 165.0047 5161.4761)">
					<stop  offset="0" style="stop-color:#784034"/>
					<stop  offset="0.4648" style="stop-color:#814638"/>
					<stop  offset="1" style="stop-color:#91503F"/>
				</linearGradient>
				<path fill="url(#SVGID_28_)" d="M1268.485,1238.998c-9.091,15.026,47.133,102.559,127.099,102.831
					c96.72,0.331,149.004-88.398,141.342-91.61c-3.833-1.608-72.434,6.711-138.647,4.302
					C1332.191,1252.123,1268.485,1238.998,1268.485,1238.998z"/>
				<path fill="#E7DDD5" d="M1393.743,1274.808c40.485-0.596,70.593-13.597,85.234-21.468c-23.887,1.28-52.482,2.207-80.7,1.181
					c-35.563-1.287-70.336-5.684-94.967-9.465C1307.62,1248.875,1339.632,1275.594,1393.743,1274.808z"/>
				<path fill="#A95643" d="M1395.584,1341.829c53.434,0.18,93.243-26.814,116.932-51.562
					c-73.157,2.165-122.963,29.353-147.693,47.034C1374.595,1340.087,1384.849,1341.797,1395.584,1341.829z"/>
			</g>
			
				<radialGradient id="SVGID_29_" cx="1673.0056" cy="5040.6616" r="1360.9464" gradientTransform="matrix(1 0 0 -1 0 5000)" gradientUnits="userSpaceOnUse">
				<stop  offset="0" style="stop-color:#DF7B32"/>
				<stop  offset="0.1744" style="stop-color:#D77631"/>
				<stop  offset="0.6137" style="stop-color:#CA6D2E"/>
				<stop  offset="1" style="stop-color:#C56A2D"/>
			</radialGradient>
			<path fill="url(#SVGID_29_)" d="M1929.524,960.084c-69.112-8.389,16.461-98.042-101.646-269.862
				c-157.933-229.76-552.023-170.783-599.642-322.566c0,0-123.858,20.735-135.231,201.811c0,0-112.609-143.863-71.542-253.507
				c46.523-124.211,134.61-201.543,387.905-175.755c411.478-41.388,580.611,325.401,602.382,490.193
				C2033.518,795.19,1967.294,964.669,1929.524,960.084z"/>
			<g>
				<path fill="#D9F0F7" d="M1448.38,901.911h-0.12l-106.974-3.11c-2.75,0-4.905-2.151-4.782-5.018
					c0.12-2.631,2.271-4.542,4.898-4.542h0.12l106.974,3.107c2.751,0,4.902,2.151,4.782,5.021
					C1453.158,899.996,1451.007,901.911,1448.38,901.911z"/>
				<path fill="#D9F0F7" d="M1965.083,927.967c-0.12,0-0.36,0-0.36,0l-184.666-20.082c-2.747-0.236-4.662-2.627-4.422-5.258
					c0.36-2.631,2.391-4.302,4.901-4.302c0,0,0.356,0,0.476,0l184.546,20.079c2.75,0.24,4.662,2.631,4.422,5.261
					C1969.625,926.292,1967.594,927.967,1965.083,927.967z"/>
				<path fill="#D9F0F7" d="M1175.743,1053.944c-2.151,0-4.302,0-6.453-0.24c-44.463-1.672-85.7-20.558-116.058-53.307
					c-30.242-32.509-46.018-75.061-44.343-119.764c1.552-42.788,20.079-69.8,56.414-82.71
					c31.913-11.235,74.581-11.475,119.644-8.844c45.059,1.672,84.741,4.062,113.071,17.688
					c31.913,15.301,46.015,42.792,44.343,86.536c-1.675,44.463-20.558,85.82-53.311,116.178
					C1257.976,1038.167,1217.935,1053.944,1175.743,1053.944z M1144.546,797.923c-28.803,0-55.099,1.911-75.897,9.324
					c-32.629,11.475-48.526,34.9-49.961,73.866c-1.555,41.833,13.266,81.994,41.833,112.831
					c28.447,30.598,67.293,48.526,109.245,50.201c1.915,0,3.946,0,5.977,0c39.682,0,77.452-14.821,106.734-42.072
					c30.718-28.447,48.529-67.173,50.081-109.245c1.435-39.206-10.875-63.826-38.846-77.216
					c-26.532-12.906-65.138-15.297-109.245-16.972C1170.841,798.163,1157.455,797.923,1144.546,797.923z"/>
				<path fill="#D9F0F7" d="M1615.95,1070.44c-2.151,0-4.302,0-6.453-0.24c-91.913-3.346-163.868-80.798-160.401-172.832
					c1.555-42.792,20.079-69.803,56.414-82.713c32.033-11.235,74.705-11.235,119.644-9.084
					c45.063,1.675,84.624,4.066,113.071,17.692c31.913,15.537,46.018,43.028,44.343,86.536l-4.902-0.24l4.902,0.24
					c-1.675,44.463-20.558,85.816-53.307,116.178C1698.183,1054.66,1658.142,1070.44,1615.95,1070.44z M1584.996,814.416
					c-28.806,0-55.222,1.915-76.14,9.324c-32.629,11.714-48.526,35.14-49.961,74.105c-3.227,86.536,64.546,159.446,151.081,162.792
					c1.911,0,3.942,0,5.974,0c39.682,0,77.452-14.821,106.738-42.072c30.718-28.447,48.526-67.173,50.081-109.245
					c1.432-39.202-10.879-63.586-38.846-77.212c-26.655-12.91-65.261-15.301-109.245-16.972
					C1611.172,814.656,1597.902,814.416,1584.996,814.416z"/>
			</g>
			<path opacity="0.3" fill="#C56A2D" enable-background="new    " d="M1218.228,370.852
				c-25.626,8.724-165.44,52.948-241.849,14.077c-7.402,43.204-10.195,80.876-1.735,128.728
				c18.337,103.589,67.212,186.422,111.22,286.03c-0.261-94.16-0.222-180.988,13.449-256.448
				C1110.696,466.82,1145.015,398.368,1218.228,370.852z"/>
			<path opacity="0.3" fill="#C56A2D" enable-background="new    " d="M2011.74,630.388c-1.576-11.891-5.653-26.673-8.805-40.443
				c-206.293-8.83-147.908-74.998-505.895-121.799c-229.129-29.952-268.797-100.503-268.797-100.503
				c32.692,104.213,228.057,110.613,398.826,177.775h-0.039c75.294,29.6,154.844,77.854,200.855,144.801
				c54.044,78.637,67.427,141.363,69.867,215.415c1.009,32.209,2.768,50.927,31.765,54.443
				C1967.294,964.658,2033.529,795.183,2011.74,630.388z"/>
			
				<radialGradient id="SVGID_30_" cx="1662.6646" cy="5087.186" r="1427.6666" gradientTransform="matrix(1 0 0 -1 0 5000)" gradientUnits="userSpaceOnUse">
				<stop  offset="0" style="stop-color:#DF7B32"/>
				<stop  offset="0.1744" style="stop-color:#D77631"/>
				<stop  offset="0.6137" style="stop-color:#CA6D2E"/>
				<stop  offset="1" style="stop-color:#C56A2D"/>
			</radialGradient>
			<path fill="url(#SVGID_30_)" d="M1424.669,74.268c0,0-139.91-88.722-298.15,38.708
				c-158.236,127.43-150.196,296.446-150.196,296.446s36.645-201.412,161.04-281.625s242.621-24.808,242.621-24.808L1424.669,74.268
				z"/>
			<path fill="#FCE8ED" d="M1866.741,1551.986c0,0-36.007,121.083-170.222,216.053l-65.473-160.271l159.199-165.307
				L1866.741,1551.986z"/>
			<path fill="#FCE8ED" d="M1631.046,1607.769l-104.753,140.629c0,0,0-91.695,6.548-157.129l75.858-114.443L1631.046,1607.769z"/>
			<polygon fill="#FCE8ED" points="1691.406,2057.406 1642.196,2174.44 1914.724,2329.933 1977.168,2207.937 			"/>
			<g>
				<polygon fill="#F5D1BA" points="1217.484,2753.14 380.048,2753.14 7.857,1925.899 845.292,1925.899 				"/>
				
					<linearGradient id="SVGID_31_" gradientUnits="userSpaceOnUse" x1="440.4876" y1="3060.9563" x2="771.3243" y2="2233.8643" gradientTransform="matrix(1 0 0 -1 0 5000)">
					<stop  offset="0" style="stop-color:#585D60"/>
					<stop  offset="1" style="stop-color:#484C4F"/>
				</linearGradient>
				<polygon fill="url(#SVGID_31_)" points="1209.627,2763.479 372.192,2763.479 0,1936.238 837.435,1936.238 				"/>
				<polygon fill="#A8ACB1" points="625.532,2005.354 258.077,2005.354 222.077,1922.591 589.532,1922.591 				"/>
				<polygon opacity="0.3" fill="#484C4F" enable-background="new    " points="641.246,2019 261.384,2019 225.384,1936.238 
					605.249,1936.238 				"/>
				<g>
					<path fill="#33363A" d="M295.35,1955.735c5.244,7.472,4.27,17.198-2.172,21.726c-6.443,4.528-15.914,2.137-21.158-5.335
						c-5.244-7.472-4.27-17.198,2.172-21.726C280.634,1945.875,290.106,1948.263,295.35,1955.735z"/>
					<path fill="#33363A" d="M579.62,1955.735c5.244,7.472,4.274,17.198-2.169,21.726c-6.446,4.528-15.918,2.137-21.161-5.335
						c-5.244-7.472-4.27-17.198,2.172-21.726C564.905,1945.875,574.38,1948.263,579.62,1955.735z"/>
				</g>
			</g>
			<path fill="#F9A867" d="M1089.468,2181.126c-31.046-22.371-134.448-45.849-199.512-40.598
				c-65.068,5.254-140.072,13.27-140.196,33.913c-0.12,20.643,114.651-10.879,119.514,1.654c3.41,8.777-25.664,9.44-62.172,15.368
				c-39.787,6.464-87.505,18.347-88.768,32.562c-1.333,14.958,49.742,4.683,92.633-1.612c35.26-5.177,63.435-6.22,65.755-0.74
				c2.493,5.889-29.942,9.574-62.86,16.454c-34.903,7.299-70.311,17.885-69.063,28.122c1.922,15.759,38.335,4.478,74.141,0.166
				c30.862-3.717,64.01-12.705,64.01-6.785c0,6.809-22.671,9.814-46.621,15.495c-23.577,5.596-45.927,9.754-43.836,21.429
				c1.382,7.709,24.201,4.605,49.012,1.686c27.847-3.276,57.401-6.481,81.535-9.246c86.405-9.906,104.82-27.322,145.566-26.469
				C1089.729,2262.968,1089.468,2181.126,1089.468,2181.126z"/>
		</g>
	</g>
</g>
</svg>
