<?xml version="1.0" encoding="utf-8"?>
<!-- Generator: Adobe Illustrator 17.0.0, SVG Export Plug-In . SVG Version: 6.00 Build 0)  -->
<!DOCTYPE svg PUBLIC "-//W3C//DTD SVG 1.1//EN" "http://www.w3.org/Graphics/SVG/1.1/DTD/svg11.dtd">
<svg version="1.1" id="Layer_1" xmlns="http://www.w3.org/2000/svg" xmlns:xlink="http://www.w3.org/1999/xlink" x="0px" y="0px"
	 width="20px" height="20px" viewBox="0.5 16.5 20 20" enable-background="new 0.5 16.5 20 20" xml:space="preserve">
<title>heart-shape-flat</title>
<linearGradient id="SVGID_1_" gradientUnits="userSpaceOnUse" x1="10.5" y1="36.5" x2="10.5" y2="16.5">
	<stop  offset="0" style="stop-color:#B20704"/>
	<stop  offset="1" style="stop-color:#D1594E"/>
</linearGradient>
<path fill="url(#SVGID_1_)" d="M0.5,26.5c0-5.523,4.477-10,10-10s10,4.478,10,10s-4.478,10-10,10S0.5,32.023,0.5,26.5z"/>
<path fill="#FFFFFF" d="M13.182,22c1.832,0,3.318,1.432,3.318,3.199c0,0,0,0,0,0c-0.001,2.921-6,6.8-6,6.8s-6-3.74-6-6.8
	C4.5,23,5.986,22,7.818,22c1.062,0,2.059,0.491,2.682,1.321C11.123,22.492,12.12,22,13.182,22z"/>
</svg>
